<?xml version="1.0" encoding="UTF-8" standalone="no"?>
<svg
   xmlns:dc="http://purl.org/dc/elements/1.1/"
   xmlns:cc="http://creativecommons.org/ns#"
   xmlns:rdf="http://www.w3.org/1999/02/22-rdf-syntax-ns#"
   xmlns:svg="http://www.w3.org/2000/svg"
   xmlns="http://www.w3.org/2000/svg"
   xmlns:sodipodi="http://sodipodi.sourceforge.net/DTD/sodipodi-0.dtd"
   xmlns:inkscape="http://www.inkscape.org/namespaces/inkscape"
   version="1.1"
   id="svg2"
   xml:space="preserve"
   width="1600"
   height="1600"
   viewBox="0 0 1600 1600"
   sodipodi:docname="illust58-4474-01.eps"><metadata
     id="metadata8"><rdf:RDF><cc:Work
         rdf:about=""><dc:format>image/svg+xml</dc:format><dc:type
           rdf:resource="http://purl.org/dc/dcmitype/StillImage" /></cc:Work></rdf:RDF></metadata><defs
     id="defs6" /><sodipodi:namedview
     pagecolor="#ffffff"
     bordercolor="#666666"
     borderopacity="1"
     objecttolerance="10"
     gridtolerance="10"
     guidetolerance="10"
     inkscape:pageopacity="0"
     inkscape:pageshadow="2"
     inkscape:window-width="640"
     inkscape:window-height="480"
     id="namedview4" /><g
     id="g10"
     inkscape:groupmode="layer"
     inkscape:label="ink_ext_XXXXXX"
     transform="matrix(1.3333333,0,0,-1.3333333,0,1600)"><g
       id="g12"
       transform="scale(0.1)"><path
         d="m 6004.7,5219.36 c -1418.5,0 -2572.54,1133.13 -2572.54,2525.97 0,1392.83 1154.04,2525.97 2572.54,2525.97 1418.51,0 2572.56,-1133.14 2572.56,-2525.97 0,-1392.84 -1154.05,-2525.97 -2572.56,-2525.97 z M 4642.77,5050.95 c 0,0 1235.03,-853.21 2753.54,0 0,0 -1368.32,-1055.29 -2753.54,0 z m 1361.94,5680.65 c -1684.36,0 -3049.81,-1326.97 -3049.81,-2963.83 0,-404.14 83.37,-789.32 234.09,-1140.36 h -0.01 l 0.01,-0.02 c 47.88,-111.51 102.55,-219.56 163.54,-323.68 L 6004.71,1054.3 8656.87,6303.68 c 253.01,431.91 397.64,931.56 397.64,1464.09 0,1636.86 -1365.44,2963.83 -3049.8,2963.83"
         style="fill:#3b393d;fill-opacity:1;fill-rule:nonzero;stroke:none"
         id="path14" /><path
         d="m 6482.54,9255.17 h -925.52 l -54.82,-202.92 h 1034.32 l -53.98,202.92"
         style="fill:#3b393d;fill-opacity:1;fill-rule:nonzero;stroke:none"
         id="path16" /><path
         d="M 6725.95,8340.14 H 5309.82 l -104.75,-387.71 h 1624.01 l -103.13,387.71"
         style="fill:#3b393d;fill-opacity:1;fill-rule:nonzero;stroke:none"
         id="path18" /><path
         d="M 6588.67,8856.22 H 5449.24 l -88.97,-329.34 h 1316 l -87.6,329.34"
         style="fill:#3b393d;fill-opacity:1;fill-rule:nonzero;stroke:none"
         id="path20" /><path
         d="M 5129.66,7673.3 5019.25,7264.63 H 7012.04 L 6903.33,7673.3 H 5129.66"
         style="fill:#3b393d;fill-opacity:1;fill-rule:nonzero;stroke:none"
         id="path22" /><path
         d="m 7866.08,6908.33 h -443.95 l 109.76,-330.09 h -337.26 l -87.81,330.09 H 4922.99 l -89.18,-330.09 H 4508.6 l 107.01,330.09 h -335.87 l 148.95,356.3 h 302.44 l 132.48,408.67 h -264.08 l 116.69,279.13 h 237.89 l 125.69,387.71 h -201.5 l 78.07,186.74 h 183.97 l 106.77,329.34 h -153.07 l 81.95,196.03 h 134.68 l 65.78,202.92 h -115.63 l 55.76,133.38 h 103.12 l 28.41,87.64 h 168.63 l -23.68,-87.64 h 854 l -23.31,87.64 h 144.54 l 29.14,-87.64 h 144.91 c 18.05,-38.71 38.9,-83.46 62.15,-133.38 h -162.71 l 67.47,-202.92 h 189.65 c 28.68,-61.69 59.2,-127.4 91.04,-196.03 h -215.51 l 109.51,-329.34 h 258.54 c 28.45,-61.53 57.28,-123.96 86.23,-186.74 h -282.67 l 128.91,-387.71 h 332.02 c 43.88,-95.78 86.69,-189.52 127.43,-279.13 h -366.63 l 135.89,-408.67 h 414.73 c 90.02,-202.84 147.69,-339.38 147.69,-356.3 z M 6004.7,9934.5 c -1225.95,0 -2223.32,-982.07 -2223.32,-2189.17 0,-1207.11 997.37,-2189.17 2223.32,-2189.17 1225.95,0 2223.34,982.06 2223.34,2189.17 0,1207.1 -997.39,2189.17 -2223.34,2189.17"
         style="fill:#3b393d;fill-opacity:1;fill-rule:nonzero;stroke:none"
         id="path24" /></g></g></svg>
